<?xml version="1.0" standalone="no"?>
<!DOCTYPE svg PUBLIC "-//W3C//DTD SVG 20010904//EN"
 "http://www.w3.org/TR/2001/REC-SVG-20010904/DTD/svg10.dtd">
<svg version="1.0" xmlns="http://www.w3.org/2000/svg"
 width="120.000000pt" height="120.000000pt" viewBox="0 0 120.000000 120.000000"
 preserveAspectRatio="xMidYMid meet">
<metadata>
Created by potrace 1.14, written by Peter Selinger 2001-2017
</metadata>
<g transform="translate(0.000000,120.000000) scale(0.100000,-0.100000)"
fill="#000000" stroke="none">
<path d="M322 1124 c-87 -37 -125 -162 -86 -281 18 -58 23 -69 64 -155 l33
-67 -41 -46 c-65 -74 -86 -127 -86 -220 0 -92 17 -137 73 -194 70 -72 183
-109 322 -106 112 2 164 12 224 40 115 53 174 147 170 270 -2 80 -31 149 -92
216 l-36 40 36 74 c21 41 37 81 37 90 0 8 4 15 8 15 5 0 9 6 9 13 1 6 7 37 14
67 45 203 -139 340 -275 204 -60 -61 -78 -127 -80 -286 0 -73 -3 -88 -16 -88
-13 0 -16 13 -16 73 0 108 -11 192 -30 229 -26 51 -56 88 -71 88 -7 0 -13 4
-13 10 0 11 -66 30 -98 27 -13 -1 -35 -7 -50 -13z"/>
</g>
</svg>
