<?xml version="1.0" encoding="UTF-8" standalone="no"?><svg version="1.2" baseProfile="tiny-ps" viewBox="0 0 128 128" zoomAndPan="disable" externalResourcesRequired="false" xmlns="http://www.w3.org/2000/svg"><title>Bencher</title><desc>Bencher Rabbit Logo</desc><path id="outline" fill="#000000" fill-opacity="1" d="m 91.04,62.87 c 5.41333,4.24 9.11333,9.476667 11.1,15.71 1.85333,5.786667 2.15333,11.436667 0.9,16.95 -1.36667,6.01333 -4.61,11.02333 -9.73,15.03 -4.386667,3.44 -9.736667,5.77333 -16.05,7 -9.833333,1.91333 -19.61,1.67 -29.33,-0.73 -4.053333,-1 -7.823333,-2.63667 -11.31,-4.91 -4.793333,-3.13333 -8.2,-7.15 -10.22,-12.05 -1.846667,-4.506667 -2.45,-9.503333 -1.81,-14.99 0.993333,-8.433333 5.033333,-15.726667 12.12,-21.88 0.602958,-0.526584 0.745946,-1.405539 0.34,-2.09 -4.04,-6.76 -7.213333,-14.043333 -9.52,-21.85 -1.38,-4.673333 -1.906667,-8.61 -1.58,-11.81 0.433333,-4.353333 1.97,-8.166667 4.61,-11.44 3.16,-3.913333 7.056667,-5.796667 11.69,-5.65 3.92,0.12 7.6,1.59 11.04,4.41 4.6,3.78 7.336667,7.42904 8.21,13.935707 0.49,3.643333 0.657432,5.952996 0.865387,10.739823 0.150482,3.522425 0.111596,7.280575 0.07402,10.602405 -0.04773,1.205311 -0.01116,2.062877 0.193426,2.394139 0.734393,1.130752 2.423841,1.054593 2.837174,-0.09207 0.153333,-0.433333 0.206667,-1.17 0.16,-2.21 -0.18,-3.6 -0.183333,-7.2 -0.01,-10.8 0.24,-5.093333 0.56,-8.676667 0.96,-10.75 1.48,-7.68 5.723333,-13.29 12.73,-16.83 3.4,-1.7133333 6.866667,-2.0133333 10.4,-0.9 2.98,0.946667 5.603333,2.873333 7.870003,5.78 3.33333,4.28 4.86666,9.083333 4.6,14.41 -0.18667,3.64 -1.61667,8.863333 -4.29,15.67 -1.973336,5.046667 -4.360003,9.94 -7.160003,14.68 -0.326572,0.559373 -0.194376,1.271522 0.31,1.67 z m -20.85,-5 c -3.906667,-0.486667 -8.046667,-0.5 -12.42,-0.04 -0.322756,0.0278 -0.589307,-0.248442 -0.55,-0.57 1.253333,-9.766667 1.096667,-19.27 -0.47,-28.51 -0.426667,-2.52 -1.483333,-4.96 -3.17,-7.32 -1.546667,-2.173333 -3.493333,-3.87 -5.84,-5.09 -5.84,-3.046667 -10.603333,-1.903333 -14.29,3.43 -1.406667,2.033333 -2.343333,4.356667 -2.81,6.97 -0.5,2.84 -0.443333,5.406667 0.17,7.7 2.666667,9.866667 6.923333,19.276667 12.77,28.23 0.173388,0.265249 0.09631,0.618913 -0.17,0.78 -5.8,3.666667 -9.92,8.423333 -12.36,14.27 -2.48,5.953333 -2.926667,11.89 -1.34,17.81 2.006667,7.5 7.123333,12.72 15.35,15.66 11.58,4.13333 23.636667,4.3 36.17,0.5 7.873333,-2.38667 13.18,-6.82333 15.92,-13.31 2.51333,-5.953333 2.66333,-12.243333 0.45,-18.87 -2.193333,-6.54 -6.52,-11.856667 -12.98,-15.95 -0.308104,-0.194766 -0.398356,-0.600899 -0.2,-0.9 5.073333,-7.793333 8.956667,-15.926667 11.65,-24.4 0.96,-3.04 1.48667,-5.63 1.58,-7.77 0.12667,-3.086667 -0.36,-5.73 -1.46,-7.93 -3.346667,-6.653333 -7.873333,-9.07 -13.58,-7.25 -3.566667,1.133333 -6.43,3.433333 -8.59,6.9 -2.013333,3.226667 -3.186667,6.906667 -3.52,11.04 -0.68,8.426667 -0.633333,16.486667 0.14,24.18 0.02818,0.257891 -0.192807,0.473963 -0.45,0.44 z" /><path id="face" d="m 41.625,14.679688 c -0.314528,0.006 -0.625523,0.02964 -0.931641,0.06836 -0.306116,0.03872 -0.608544,0.0926 -0.90625,0.164063 -0.297704,0.07146 -0.591565,0.15948 -0.880859,0.263672 -0.289294,0.104191 -0.574586,0.224402 -0.855469,0.361328 -0.280882,0.136926 -0.555653,0.291278 -0.828125,0.460937 -0.27247,0.16966 -0.542581,0.354247 -0.80664,0.556641 -0.264061,0.202394 -0.523649,0.421122 -0.779297,0.65625 -0.255649,0.235128 -0.506669,0.487998 -0.753907,0.75586 -0.247236,0.267862 -0.489689,0.550967 -0.728515,0.851562 -0.238826,0.300597 -0.474664,0.617843 -0.705078,0.951172 -0.351663,0.508329 -0.673884,1.035501 -0.966797,1.580078 -0.292914,0.544579 -0.554898,1.106673 -0.789063,1.6875 -0.234163,0.580828 -0.439819,1.179798 -0.615234,1.796875 -0.175415,0.617078 -0.320835,1.252924 -0.4375,1.90625 -0.124998,0.709994 -0.216069,1.402299 -0.271484,2.078125 -0.05542,0.675827 -0.07667,1.334902 -0.0625,1.976563 0.01417,0.64166 0.06469,1.265553 0.148437,1.873047 0.08375,0.607494 0.202137,1.198157 0.355469,1.771484 0.33333,1.233321 0.691202,2.460637 1.074219,3.679688 0.383017,1.21905 0.789952,2.429986 1.222656,3.634765 0.432704,1.20478 0.890655,2.403241 1.373047,3.59375 0.48239,1.190509 0.989406,2.374543 1.521484,3.550781 0.532078,1.17624 1.09011,2.343893 1.671875,3.50586 0.581765,1.161967 1.186908,2.317146 1.818359,3.464844 0.631453,1.147696 1.289564,2.288448 1.970704,3.421875 0.681138,1.133425 1.386361,2.25975 2.117187,3.378906 0.04143,0.06285 0.06999,0.133262 0.08398,0.207031 0.0136,0.07397 0.01226,0.149706 -0.0039,0.222656 -0.01615,0.07267 -0.04671,0.141089 -0.08984,0.201172 -0.04283,0.05992 -0.09729,0.110398 -0.160156,0.148438 -0.724992,0.458328 -1.423209,0.935344 -2.095703,1.427734 -0.672494,0.492391 -1.319459,1.000891 -1.939453,1.527344 -0.619994,0.526453 -1.213756,1.070344 -1.78125,1.630859 -0.567494,0.560515 -1.108051,1.137845 -1.623047,1.732422 -0.514994,0.594577 -1.004301,1.205346 -1.466797,1.833984 -0.462494,0.62864 -0.898598,1.274799 -1.308594,1.9375 -0.409994,0.662703 -0.794847,1.342299 -1.152343,2.039063 -0.357496,0.696764 -0.68719,1.411752 -0.992188,2.142578 -0.309996,0.744159 -0.589481,1.486831 -0.835937,2.230469 -0.246456,0.743638 -0.461616,1.48735 -0.644532,2.230469 -0.182914,0.743117 -0.33375,1.485919 -0.453125,2.228515 -0.119373,0.742598 -0.205886,1.484486 -0.261718,2.226563 -0.05583,0.742075 -0.07997,1.485007 -0.07227,2.226562 0.0077,0.741556 0.04594,1.481623 0.117188,2.222656 0.07125,0.741035 0.175757,1.482143 0.310546,2.222657 0.134791,0.740513 0.301669,1.480711 0.5,2.220703 0.125417,0.468746 0.262398,0.929927 0.41211,1.380859 0.149712,0.450933 0.310366,0.893051 0.484375,1.326172 0.174008,0.433121 0.360288,0.856177 0.558594,1.271484 0.198305,0.415309 0.41021,0.821256 0.632812,1.218746 0.222602,0.3975 0.456226,0.78634 0.703125,1.16602 0.246899,0.37968 0.506148,0.75141 0.777344,1.11328 0.271195,0.36187 0.554118,0.71454 0.849609,1.05859 0.295493,0.34406 0.60404,0.67962 0.923828,1.00586 0.319789,0.32625 0.652009,0.64274 0.996094,0.95117 0.344085,0.30844 0.699978,0.60782 1.068359,0.89844 0.368383,0.29062 0.747947,0.57289 1.140625,0.84571 0.39268,0.27281 0.797869,0.53601 1.214844,0.79101 0.416975,0.255 0.845838,0.5011 1.28711,0.73828 0.44127,0.23719 0.895759,0.46617 1.361328,0.68555 0.465567,0.21937 0.943729,0.4293 1.433593,0.63086 0.489866,0.20156 0.991698,0.39437 1.50586,0.57812 0.723742,0.25834 1.448315,0.50118 2.175781,0.72852 0.727466,0.22734 1.458263,0.44036 2.189453,0.63672 0.731192,0.19635 1.464305,0.37565 2.199219,0.54101 0.734914,0.16537 1.470346,0.3168 2.208984,0.45118 0.73864,0.13436 1.480294,0.25208 2.222657,0.35546 0.742362,0.10339 1.486335,0.19128 2.232421,0.26368 0.746088,0.0724 1.494331,0.13046 2.244141,0.17187 0.74981,0.0414 1.500372,0.0658 2.253906,0.0762 0.753535,0.0104 1.510321,0.007 2.267578,-0.0137 0.757259,-0.0206 1.516362,-0.0578 2.277344,-0.10937 0.760982,-0.0516 1.522403,-0.11862 2.28711,-0.20118 0.764705,-0.0825 1.532351,-0.17943 2.300781,-0.29296 0.76843,-0.11355 1.538393,-0.24415 2.310547,-0.38868 0.772153,-0.14453 1.546388,-0.30299 2.322265,-0.47851 0.775878,-0.17552 1.55243,-0.36771 2.332032,-0.57422 0.779601,-0.20651 1.562377,-0.42852 2.345703,-0.66602 0.492078,-0.14916 0.973286,-0.30552 1.445312,-0.4707 0.472027,-0.16518 0.934744,-0.33833 1.386719,-0.51953 0.451975,-0.1812 0.894249,-0.37115 1.326172,-0.56836 0.431923,-0.19721 0.853754,-0.40202 1.265625,-0.61523 0.411871,-0.21323 0.813259,-0.43482 1.205078,-0.66407 0.391819,-0.22924 0.772764,-0.46569 1.144531,-0.71093 0.371767,-0.24527 0.734223,-0.4985 1.085938,-0.75977 0.351715,-0.26127 0.693727,-0.53131 1.02539,-0.80859 0.331664,-0.27729 0.653233,-0.56217 0.964844,-0.85547 0.311612,-0.29331 0.612737,-0.59498 0.904297,-0.9043 0.29156,-0.30932 0.574195,-0.62584 0.845703,-0.95117 0.271508,-0.32533 0.531748,-0.65865 0.783203,-1 0.251456,-0.34135 0.493206,-0.69146 0.72461,-1.04883 0.231403,-0.35736 0.45271,-0.72232 0.664057,-1.0957 0.21136,-0.37338 0.41222,-0.755135 0.60352,-1.144532 0.1913,-0.389397 0.37367,-0.785994 0.54492,-1.191407 0.31417,-0.744159 0.59172,-1.495319 0.83203,-2.25 0.24031,-0.754679 0.44292,-1.514095 0.60938,-2.279297 0.16645,-0.7652 0.29607,-1.534825 0.38867,-2.310546 0.0926,-0.775722 0.14922,-1.557508 0.16797,-2.34375 0.0188,-0.786242 4.2e-4,-1.578238 -0.0547,-2.375 -0.0551,-0.796763 -0.14839,-1.598967 -0.27735,-2.40625 -0.12895,-0.807284 -0.29523,-1.619696 -0.49804,-2.4375 -0.20281,-0.817805 -0.44209,-1.640426 -0.71875,-2.46875 -0.27417,-0.817492 -0.58105,-1.615269 -0.92188,-2.394532 -0.34083,-0.779263 -0.715548,-1.540215 -1.123044,-2.28125 -0.407494,-0.741034 -0.848103,-1.46321 -1.322265,-2.166015 -0.474162,-0.702806 -0.980656,-1.386204 -1.521485,-2.050782 -0.540827,-0.664576 -1.115162,-1.309199 -1.722656,-1.935546 -0.607494,-0.626348 -1.249668,-1.234147 -1.923828,-1.822266 -0.67416,-0.588119 -1.380267,-1.157141 -2.121094,-1.707031 -0.740825,-0.549891 -1.516726,-1.080136 -2.324218,-1.591797 -0.07387,-0.04694 -0.136388,-0.107649 -0.185547,-0.177735 -0.04916,-0.07008 -0.08496,-0.149546 -0.103516,-0.234375 -0.01871,-0.08453 -0.01919,-0.170876 -0.0039,-0.253906 0.01528,-0.08303 0.04633,-0.162748 0.09375,-0.234375 0.63416,-0.974157 1.250683,-1.954671 1.847656,-2.939453 0.596973,-0.984782 1.174589,-1.973343 1.734375,-2.96875 0.559786,-0.995407 1.100448,-1.995921 1.623047,-3.001953 0.522599,-1.006032 1.026307,-2.0185 1.511719,-3.035156 0.485411,-1.016657 0.952166,-2.039125 1.40039,-3.066407 0.448225,-1.02728 0.878025,-2.059749 1.289063,-3.097656 0.411037,-1.037906 0.803884,-2.080375 1.177734,-3.128906 0.373851,-1.048531 0.729744,-2.102954 1.066409,-3.162109 0.23999,-0.759994 0.45284,-1.491569 0.63867,-2.195313 0.18583,-0.703742 0.3449,-1.37985 0.47656,-2.027344 0.13167,-0.647492 0.235,-1.266176 0.3125,-1.857422 0.0775,-0.591244 0.12901,-1.154457 0.15235,-1.689453 0.0317,-0.771658 0.0255,-1.516178 -0.0195,-2.232422 -0.0225,-0.358121 -0.056,-0.708467 -0.0977,-1.052734 -0.0417,-0.344267 -0.0915,-0.681305 -0.15235,-1.011719 -0.0608,-0.330413 -0.13289,-0.654143 -0.21289,-0.970703 -0.08,-0.316559 -0.16841,-0.626982 -0.26758,-0.929687 -0.0992,-0.302706 -0.20784,-0.597867 -0.32617,-0.886719 -0.11833,-0.288852 -0.24727,-0.570705 -0.38476,-0.845703 -0.209168,-0.415829 -0.422246,-0.816488 -0.640629,-1.199219 -0.218383,-0.38273 -0.44232,-0.748024 -0.669922,-1.097656 -0.227602,-0.349632 -0.458492,-0.683467 -0.695312,-1 -0.236814,-0.316533 -0.47857,-0.615003 -0.72461,-0.898438 -0.246041,-0.283434 -0.496698,-0.550445 -0.751956,-0.800781 -0.255257,-0.250336 -0.51482,-0.483934 -0.779297,-0.701172 -0.264475,-0.217237 -0.534899,-0.419377 -0.808593,-0.603515 -0.273696,-0.184139 -0.55107,-0.350913 -0.833985,-0.501953 -0.282913,-0.151041 -0.571148,-0.286356 -0.863281,-0.404297 -0.292133,-0.117942 -0.589274,-0.217892 -0.890625,-0.302735 -0.301351,-0.08484 -0.605445,-0.153333 -0.916016,-0.205078 -0.310569,-0.05174 -0.627477,-0.08682 -0.947265,-0.105469 -0.319789,-0.01865 -0.643649,-0.02227 -0.972657,-0.0078 -0.329006,0.01445 -0.661773,0.0462 -1,0.09375 -0.338225,0.04755 -0.681852,0.110756 -1.029296,0.191406 -0.347446,0.08065 -0.699978,0.17922 -1.056641,0.292969 -0.445829,0.141665 -0.880837,0.300392 -1.304688,0.478516 -0.423849,0.178123 -0.83641,0.375262 -1.238281,0.589843 -0.401871,0.214581 -0.791983,0.44818 -1.171875,0.699219 -0.379892,0.251039 -0.749508,0.519144 -1.107422,0.806641 -0.357913,0.287497 -0.705081,0.594014 -1.041015,0.917968 -0.335935,0.323956 -0.660654,0.664978 -0.97461,1.025391 -0.313954,0.360413 -0.616226,0.739848 -0.908203,1.136719 -0.291975,0.396871 -0.573752,0.812764 -0.84375,1.246094 -0.251663,0.403328 -0.489429,0.812972 -0.714844,1.230468 -0.225413,0.417496 -0.437554,0.841775 -0.636718,1.273438 -0.199165,0.431662 -0.385679,0.870577 -0.558594,1.316406 -0.172915,0.445829 -0.33185,0.899379 -0.478516,1.359375 -0.146665,0.459996 -0.281928,0.926228 -0.402343,1.400391 -0.120416,0.474161 -0.226147,0.95503 -0.320313,1.443359 -0.09417,0.488329 -0.176224,0.983834 -0.244141,1.486328 -0.0679,0.502479 -0.122386,1.012622 -0.164052,1.529283 -0.085,1.053323 -0.158412,2.100713 -0.220703,3.142578 -0.06229,1.041865 -0.112761,2.078969 -0.152344,3.109375 -0.03958,1.030407 -0.06906,2.055271 -0.08594,3.074219 -0.01687,1.018948 -0.02146,2.031572 -0.01563,3.039062 0.0058,1.00749 0.02224,2.009828 0.05078,3.00586 0.02854,0.996031 0.06789,1.986129 0.11914,2.970703 0.05125,0.984573 0.115496,1.962432 0.189454,2.935547 0.07396,0.973115 0.159193,1.940687 0.255859,2.902343 0.0086,0.08108 -0.0077,0.162855 -0.04687,0.234375 -0.03852,0.07127 -0.09778,0.129162 -0.169922,0.166016 -0.07237,0.03646 -0.154097,0.05008 -0.234375,0.03906 -0.976657,-0.121666 -1.966833,-0.212891 -2.972656,-0.275391 -1.005823,-0.0625 -2.02751,-0.09628 -3.0625,-0.09961 -1.03499,-0.0033 -2.084281,0.02425 -3.148438,0.08008 -1.064155,0.05583 -2.143005,0.140861 -3.236328,0.255859 -0.07648,0.0065 -0.152555,-0.0049 -0.222656,-0.03125 -0.0701,-0.02637 -0.134237,-0.06777 -0.1875,-0.123047 -0.05326,-0.05535 -0.09349,-0.120301 -0.117188,-0.191406 -0.0237,-0.07111 -0.03088,-0.14837 -0.02148,-0.224609 0.156665,-1.220822 0.28974,-2.437799 0.402344,-3.650391 0.112602,-1.212592 0.204897,-2.420637 0.273437,-3.625 0.06854,-1.204363 0.114193,-2.405428 0.138672,-3.601563 0.02448,-1.196133 0.02741,-2.388267 0.0078,-3.576171 -0.01958,-1.187905 -0.06135,-2.371106 -0.125,-3.550782 C 57.854306,38.076182 57.767851,36.89996 57.660143,35.728514 57.552449,34.557068 57.423254,33.389781 57.271484,32.226562 57.119732,31.063347 56.945831,29.904988 56.75,28.75 56.643335,28.120006 56.497915,27.494994 56.3125,26.875 56.127085,26.255006 55.900882,25.639291 55.636719,25.029297 55.372554,24.419303 55.069476,23.814838 54.726562,23.214844 54.38365,22.61485 54.001741,22.019682 53.580078,21.429688 53.193415,20.886359 52.782366,20.372416 52.345703,19.888672 51.909041,19.404926 51.4476,18.951506 50.960937,18.527344 50.474276,18.103181 49.962443,17.70833 49.425781,17.34375 48.88912,16.97917 48.326895,16.644841 47.740234,16.339844 47.375238,16.149429 47.014788,15.97604 46.658203,15.818359 c -0.356585,-0.15768 -0.710419,-0.298881 -1.058594,-0.423828 -0.348173,-0.124946 -0.691487,-0.233959 -1.03125,-0.326172 -0.339762,-0.09221 -0.674508,-0.169037 -1.005859,-0.228515 -0.331351,-0.05948 -0.659482,-0.102162 -0.982422,-0.128906 -0.322939,-0.02675 -0.64055,-0.03724 -0.955078,-0.03125 z" style="fill:#ffffff" /><path id="mouth" fill="#bfb5bf" fill-opacity="1" d="m 69,103.56 q 2.08,0 3.57,-1.6 0.21,-0.24 0.41,-0.35 1.2,-0.71 0.21,0.83 -2.88,4.47 -8.66,1.9 a 1.22,1.23 46.3 0 0 -0.95,-0.02 q -6.21,2.54 -8.93,-2.26 -0.42,-0.74 0.05,-0.71 a 1.04,0.54 59.1 0 1 0.6,0.37 q 3.6,4.14 7.61,-0.87 a 1.32,1.32 0 0 1 2.22,0.26 q 0.46,0.98 1.65,1.76 1.06,0.69 2.22,0.69 z" /><ellipse id="nose" fill="#fc7300" fill-opacity="1" cx="64.486961" cy="96.653656" rx="3.53" ry="1.97" transform="rotate(0.3)" /><path id="ears" fill="#fc7300" fill-opacity="1" d="m 42.15,15.69 c 0.733333,0.553333 1.346667,1.216667 1.84,1.99 1.933333,3.046667 3.033333,6.736667 3.3,11.07 0.366667,6.166667 0.33,12.673333 -0.11,19.52 -0.186667,2.98 -1.19,3.286667 -3.01,0.92 -4.42,-5.753333 -7.956667,-12.92 -10.61,-21.5 -0.84,-2.726667 -0.876667,-5.523333 -0.11,-8.39 0.58,-2.153333 1.433333,-3.646667 2.56,-4.48 1.666667,-1.24 3.713333,-0.95 6.14,0.87 z m 35.7,0 c -0.733333,0.553333 -1.346667,1.216667 -1.84,1.99 -1.933333,3.046667 -3.033333,6.736667 -3.3,11.07 -0.366667,6.166667 -0.33,12.673333 0.11,19.52 0.186667,2.98 1.19,3.286667 3.01,0.92 4.42,-5.753333 7.956667,-12.92 10.61,-21.5 0.84,-2.726667 0.876667,-5.523333 0.11,-8.39 -0.58,-2.153333 -1.433333,-3.646667 -2.56,-4.48 -1.666667,-1.24 -3.713333,-0.95 -6.14,0.87 z" transform="translate(4,8)" /><path id="cheeks" style="fill:#fdb07e;fill-opacity:1" d="m 42.084458,84.719032 c 0,3.872338 -3.278533,7.011488 -7.322808,7.011488 -4.044275,0 -7.322808,-3.13915 -7.322808,-7.011488 0,-3.872337 3.278533,-7.011487 7.322808,-7.011487 4.044275,0 7.322808,3.13915 7.322808,7.011487 z m 35.831084,0 c 0,3.872338 3.278533,7.011488 7.322808,7.011488 4.044275,0 7.322808,-3.13915 7.322808,-7.011488 0,-3.872337 -3.278533,-7.011487 -7.322808,-7.011487 -4.044275,0 -7.322808,3.13915 -7.322808,7.011487 z" transform="translate(4,8)" /><path id="eyes" style="fill:#000000;fill-opacity:1" d="m 47.451446,76.183212 c 0,3.131826 -2.549593,5.670672 -5.694675,5.670672 -3.145082,0 -5.694674,-2.538846 -5.694674,-5.670672 0,-3.131825 2.549592,-5.670671 5.694674,-5.670671 3.145082,0 5.694675,2.538846 5.694675,5.670671 z m 25.097108,0 c 0,3.131826 2.549593,5.670672 5.694675,5.670672 3.145082,0 5.694674,-2.538846 5.694674,-5.670672 0,-3.131825 -2.549592,-5.670671 -5.694674,-5.670671 -3.145082,0 -5.694675,2.538846 -5.694675,5.670671 z" transform="translate(4,8)" /></svg>