<?xml version="1.0" encoding="UTF-8" standalone="no"?>
<svg
   version="1.1"
   viewBox="0 0 120 113"
   id="svg22"
   sodipodi:docname="bencher_rabbit_vector.svg"
   inkscape:version="1.2.2 (b0a8486, 2022-12-01)"
   xmlns:inkscape="http://www.inkscape.org/namespaces/inkscape"
   xmlns:sodipodi="http://sodipodi.sourceforge.net/DTD/sodipodi-0.dtd"
   xmlns="http://www.w3.org/2000/svg"
   xmlns:svg="http://www.w3.org/2000/svg">
  <defs
     id="defs26">
    <inkscape:path-effect
       effect="slice"
       start_point="91.981834,77.742622"
       end_point="91.981834,91.657272"
       center_point="91.981834,84.699947"
       id="path-effect400"
       is_visible="true"
       lpeversion="1.2"
       lpesatellites="#path402"
       allow_transforms="true" />
    <inkscape:path-effect
       effect="mirror_symmetry"
       start_point="91.981834,77.742622"
       end_point="91.981834,91.657272"
       center_point="91.981834,84.699947"
       id="path-effect398"
       is_visible="true"
       lpeversion="1.2"
       lpesatellites=""
       mode="free"
       discard_orig_path="false"
       fuse_paths="false"
       oposite_fuse="false"
       split_items="false"
       split_open="false"
       link_styles="false" />
    <inkscape:path-effect
       effect="slice"
       start_point="83.791106,70.672154"
       end_point="83.791106,81.748134"
       center_point="83.791106,76.210144"
       id="path-effect394"
       is_visible="true"
       lpeversion="1.2"
       lpesatellites="#path396"
       allow_transforms="true" />
    <inkscape:path-effect
       effect="mirror_symmetry"
       start_point="83.791106,70.672154"
       end_point="83.791106,81.748134"
       center_point="83.791106,76.210144"
       id="path-effect392"
       is_visible="true"
       lpeversion="1.2"
       lpesatellites=""
       mode="free"
       discard_orig_path="false"
       fuse_paths="false"
       oposite_fuse="false"
       split_items="false"
       split_open="false"
       link_styles="false" />
    <inkscape:path-effect
       effect="slice"
       start_point="47.54,14.066275"
       end_point="47.54,50.761384"
       center_point="47.54,32.413829"
       id="path-effect388"
       is_visible="true"
       lpeversion="1.2"
       lpesatellites="#path390"
       allow_transforms="true" />
    <inkscape:path-effect
       effect="mirror_symmetry"
       start_point="47.54,14.066275"
       end_point="47.54,50.761384"
       center_point="47.54,32.413829"
       id="path-effect386"
       is_visible="true"
       lpeversion="1.2"
       lpesatellites=""
       mode="free"
       discard_orig_path="false"
       fuse_paths="false"
       oposite_fuse="false"
       split_items="false"
       split_open="false"
       link_styles="false" />
    <filter
       inkscape:label="Fast Crop"
       inkscape:auto-region="false"
       inkscape:menu="Fill and Transparency"
       inkscape:menu-tooltip="Does not filter but adds a filter region"
       style="color-interpolation-filters:sRGB;"
       id="filter336">
      <feColorMatrix
         type="saturate"
         values="1"
         id="feColorMatrix334" />
    </filter>
  </defs>
  <sodipodi:namedview
     id="namedview24"
     pagecolor="#ffffff"
     bordercolor="#000000"
     borderopacity="0.25"
     inkscape:showpageshadow="2"
     inkscape:pageopacity="0.0"
     inkscape:pagecheckerboard="0"
     inkscape:deskcolor="#d1d1d1"
     showgrid="false"
     inkscape:zoom="2.9750094"
     inkscape:cx="34.117539"
     inkscape:cy="13.613402"
     inkscape:window-width="1390"
     inkscape:window-height="1027"
     inkscape:window-x="341"
     inkscape:window-y="25"
     inkscape:window-maximized="0"
     inkscape:current-layer="svg22" />
  <path
     fill="rgb(0,0,0)"
     fill-opacity="1.000"
     d="M 87.04 54.87 Q 95.16 61.23 98.14 70.58 Q 100.92 79.26 99.04 87.53 Q 96.99 96.55 89.31 102.56 Q 82.73 107.72 73.26 109.56 Q 58.51 112.43 43.93 108.83 Q 37.85 107.33 32.62 103.92 Q 25.43 99.22 22.40 91.87 Q 19.63 85.11 20.59 76.88 Q 22.08 64.23 32.71 55.00 A 1.66 1.65 -36.0 0 0 33.05 52.91 Q 26.99 42.77 23.53 31.06 Q 21.46 24.05 21.95 19.25 Q 22.60 12.72 26.56 7.81 Q 31.30 1.94 38.25 2.16 Q 44.13 2.34 49.29 6.57 Q 56.19 12.24 57.50 22.00 Q 58.97 32.93 58.34 43.93 A 0.85 0.78 -74.8 0 0 58.74 44.70 Q 60.85 45.87 61.47 44.15 Q 61.70 43.50 61.63 41.94 Q 61.36 36.54 61.62 31.14 Q 61.98 23.50 62.58 20.39 Q 64.80 8.87 75.31 3.56 Q 80.41 0.99 85.71 2.66 Q 90.18 4.08 93.58 8.44 Q 98.58 14.86 98.18 22.85 Q 97.90 28.31 93.89 38.52 Q 90.93 46.09 86.73 53.20 A 1.30 1.29 -55.5 0 0 87.04 54.87 Z M 66.19 49.87 Q 60.33 49.14 53.77 49.83 A 0.51 0.51 -89.1 0 1 53.22 49.26 Q 55.10 34.61 52.75 20.75 Q 52.11 16.97 49.58 13.43 Q 47.26 10.17 43.74 8.34 Q 34.98 3.77 29.45 11.77 Q 27.34 14.82 26.64 18.74 Q 25.89 23.00 26.81 26.44 Q 30.81 41.24 39.58 54.67 A 0.56 0.55 57.4 0 1 39.41 55.45 Q 30.71 60.95 27.05 69.72 Q 23.33 78.65 25.71 87.53 Q 28.72 98.78 41.06 103.19 Q 58.43 109.39 77.23 103.69 Q 89.04 100.11 93.15 90.38 Q 96.92 81.45 93.60 71.51 Q 90.31 61.70 80.62 55.56 A 0.65 0.64 32.6 0 1 80.42 54.66 Q 88.03 42.97 92.07 30.26 Q 93.51 25.70 93.65 22.49 Q 93.84 17.86 92.19 14.56 Q 87.17 4.58 78.61 7.31 Q 73.26 9.01 70.02 14.21 Q 67.00 19.05 66.50 25.25 Q 65.48 37.89 66.64 49.43 A 0.40 0.40 0.6 0 1 66.19 49.87 Z"
     id="path2" />
  <path
     fill="rgb(255,255,255)"
     fill-opacity="1.000"
     d="M 66.64 49.43 Q 65.48 37.89 66.50 25.25 Q 67.00 19.05 70.02 14.21 Q 73.26 9.01 78.61 7.31 Q 87.17 4.58 92.19 14.56 Q 93.84 17.86 93.65 22.49 Q 93.51 25.70 92.07 30.26 Q 88.03 42.97 80.42 54.66 A 0.65 0.64 32.6 0 0 80.62 55.56 Q 90.31 61.70 93.60 71.51 Q 96.92 81.45 93.15 90.38 Q 89.04 100.11 77.23 103.69 Q 58.43 109.39 41.06 103.19 Q 28.72 98.78 25.71 87.53 Q 23.33 78.65 27.05 69.72 Q 30.71 60.95 39.41 55.45 A 0.56 0.55 57.4 0 0 39.58 54.67 Q 30.81 41.24 26.81 26.44 Q 25.89 23.00 26.64 18.74 Q 27.34 14.82 29.45 11.77 Q 34.98 3.77 43.74 8.34 Q 47.26 10.17 49.58 13.43 Q 52.11 16.97 52.75 20.75 Q 55.10 34.61 53.22 49.26 A 0.51 0.51 -89.1 0 0 53.77 49.83 Q 60.33 49.14 66.19 49.87 A 0.40 0.40 0.6 0 0 66.64 49.43 Z M 42.15 15.69 Q 38.51 12.96 36.01 14.82 Q 34.32 16.07 33.45 19.30 Q 32.30 23.60 33.56 27.69 Q 37.54 40.56 44.17 49.19 Q 46.90 52.74 47.18 48.27 Q 47.84 38.00 47.29 28.75 Q 46.89 22.25 43.99 17.68 Q 43.25 16.52 42.15 15.69 Z M 83.69 14.64 Q 79.30 13.02 76.50 17.00 Q 74.01 20.53 73.39 24.82 Q 71.55 37.40 73.25 50.02 Q 73.53 52.10 74.82 50.44 Q 82.08 41.13 85.79 29.52 Q 87.10 25.42 87.05 22.87 Q 86.97 19.43 85.35 16.14 A 3.03 3.02 -2.8 0 0 83.69 14.64 Z M 36.00 77.46 Q 32.56 77.46 30.35 79.38 Q 28.21 81.23 28.13 84.36 Q 28.04 88.13 30.98 90.30 Q 33.49 92.16 36.48 91.50 Q 39.79 90.77 41.37 87.58 Q 42.31 85.68 41.88 84.30 Q 41.31 82.49 38.69 82.06 Q 36.84 81.76 37.25 79.71 Q 43.07 84.32 46.31 79.13 Q 47.41 77.37 47.17 75.52 Q 46.88 73.35 45.29 72.01 Q 43.26 70.31 40.39 70.95 Q 35.99 71.94 36.00 77.46 Z M 79.50 81.71 Q 80.90 81.81 79.70 82.39 Q 79.12 82.66 78.53 82.89 A 0.80 0.74 -10.5 0 0 78.03 83.56 Q 77.80 88.82 81.88 90.90 Q 84.22 92.09 86.74 91.41 Q 89.54 90.65 90.93 88.25 Q 92.64 85.28 91.57 82.10 Q 90.38 78.59 86.00 77.76 Q 84.24 77.43 83.79 75.75 Q 83.40 71.83 80.25 71.00 Q 75.53 69.76 73.67 73.21 Q 72.13 76.07 73.41 78.86 Q 74.88 82.08 79.50 81.71 Z M 63.5100 89.0085 A 3.53 1.97 0.3 0 0 59.9903 87.0200 A 3.53 1.97 0.3 0 0 56.4500 88.9715 A 3.53 1.97 0.3 0 0 59.9697 90.9600 A 3.53 1.97 0.3 0 0 63.5100 89.0085 Z M 62.78 94.87 Q 61.59 94.09 61.13 93.11 A 1.32 1.32 -38.3 0 0 58.91 92.85 Q 54.90 97.86 51.30 93.72 A 1.04 0.54 59.1 0 0 50.70 93.35 Q 50.23 93.32 50.65 94.06 Q 53.37 98.86 59.58 96.32 A 1.23 1.22 -43.7 0 1 60.53 96.34 Q 66.31 98.91 69.19 94.44 Q 70.18 92.90 68.98 93.61 Q 68.78 93.72 68.57 93.96 Q 67.08 95.56 65.00 95.56 Q 63.84 95.56 62.78 94.87 Z"
     id="path4" />
  <path
     fill="rgb(252,115,0)"
     fill-opacity="1.000"
     d="m 38.794922,14.107422 c -1.023333,-0.145 -1.951823,0.09289 -2.785156,0.71289 -1.126667,0.833334 -1.980547,2.327136 -2.560547,4.480469 -0.766667,2.866667 -0.728672,5.662005 0.111328,8.388672 2.653333,8.58 6.189375,15.746667 10.609375,21.5 1.82,2.366667 2.823099,2.060078 3.009766,-0.919922 0.439999,-6.846666 0.476041,-13.352864 0.109374,-19.519531 -0.266666,-4.333333 -1.365494,-8.023646 -3.298828,-11.070312 -0.493333,-0.773334 -1.10651,-1.436902 -1.839843,-1.990235 -1.213334,-0.91 -2.332136,-1.437031 -3.355469,-1.582031 z M 47.54,37.017037 c -4.86e-4,0.224289 -4.86e-4,0.448986 0,0.674094 z"
     id="path6"
     inkscape:path-effect="#path-effect386;#path-effect388"
     inkscape:original-d="M 42.15 15.69 Q 43.25 16.52 43.99 17.68 Q 46.89 22.25 47.29 28.75 Q 47.84 38.00 47.18 48.27 Q 46.90 52.74 44.17 49.19 Q 37.54 40.56 33.56 27.69 Q 32.30 23.60 33.45 19.30 Q 34.32 16.07 36.01 14.82 Q 38.51 12.96 42.15 15.69 Z"
     class="UnoptimicedTransforms" />
  <path
     fill="rgb(0,0,0)"
     fill-opacity="1.000"
     d="m 78.068359,70.673828 c -2.0025,-0.03375 -3.468437,0.81211 -4.398437,2.53711 -1.026667,1.906666 -1.113099,3.788437 -0.259766,5.648437 0.98,2.146667 3.009844,3.098229 6.089844,2.851563 C 82.406667,80.844271 83.835729,78.856667 83.789062,75.75 83.529063,73.136667 82.35,71.553333 80.25,71 79.463333,70.793333 78.735859,70.685078 78.068359,70.673828 Z"
     id="path12"
     class="UnoptimicedTransforms"
     inkscape:path-effect="#path-effect392;#path-effect394"
     inkscape:original-d="M 83.79 75.75 Q 83.86 80.41 79.50 81.71 Q 74.88 82.08 73.41 78.86 Q 72.13 76.07 73.67 73.21 Q 75.53 69.76 80.25 71.00 Q 83.40 71.83 83.79 75.75 Z" />
  <path
     fill="#fdb07e"
     fill-opacity="1"
     d="M 91.981834,84.553902 C 91.986318,83.746473 91.849169,82.92836 91.570312,82.099609 90.776979,79.759609 88.92,78.313099 86,77.759766 c -1.173333,-0.22 -3.11918,1.708133 -3.773438,2.464843 -0.75599,0.643817 -0.907721,0.706318 -1.699218,1.160157 -0.945549,0.369243 -1.256576,0.401431 -1.96875,0.394531 -0.291102,0.116204 -0.516037,1.489604 -0.529297,1.78125 -0.153333,3.506667 1.131562,5.953177 3.851562,7.339844 1.56,0.793333 3.179375,0.963098 4.859375,0.509765 C 88.606901,90.903489 90.003021,89.85 90.929688,88.25 c 0.69435,-1.205978 1.04516,-2.438069 1.052146,-3.696098 z"
     id="path14"
     sodipodi:nodetypes="cccccccccc"
     inkscape:path-effect="#path-effect398;#path-effect400"
     inkscape:original-d="M 82.226431,80.224213 C 82.880689,79.467503 84.826667,77.54 86,77.76 c 2.92,0.553333 4.776667,2 5.57,4.34 0.713333,2.12 0.5,4.17 -0.64,6.15 -0.926667,1.6 -2.323333,2.653333 -4.19,3.16 -1.68,0.453333 -3.3,0.283333 -4.86,-0.51 -2.72,-1.386667 -4.003333,-3.833333 -3.85,-7.34 0.01326,-0.291646 0.236898,-1.663616 0.528,-1.77982 0.712174,0.0069 1.023,-0.02537 1.968549,-0.394613 0.791497,-0.453839 0.943891,-0.517537 1.699882,-1.161354 z"
     class="UnoptimicedTransforms" />
  <ellipse
     fill="rgb(252,115,0)"
     fill-opacity="1.000"
     cx="0"
     cy="0"
     rx="3.53"
     ry="1.97"
     transform="translate(59.98,88.99) rotate(0.3)"
     id="ellipse18" />
  <path
     fill="rgb(191,181,191)"
     fill-opacity="1.000"
     d="M 65.00 95.56 Q 67.08 95.56 68.57 93.96 Q 68.78 93.72 68.98 93.61 Q 70.18 92.90 69.19 94.44 Q 66.31 98.91 60.53 96.34 A 1.23 1.22 -43.7 0 0 59.58 96.32 Q 53.37 98.86 50.65 94.06 Q 50.23 93.32 50.70 93.35 A 1.04 0.54 59.1 0 1 51.30 93.72 Q 54.90 97.86 58.91 92.85 A 1.32 1.32 -38.3 0 1 61.13 93.11 Q 61.59 94.09 62.78 94.87 Q 63.84 95.56 65.00 95.56 Z"
     id="path20" />
  <path
     id="path390"
     d="m 47.54,37.69113 c 0.0074,3.430978 0.127666,6.957065 0.360391,10.578401 0.186667,2.98 1.189765,3.286589 3.009765,0.919922 4.42,-5.753333 7.956042,-12.92 10.609375,-21.5 0.84,-2.726667 0.877995,-5.522005 0.111328,-8.388672 -0.58,-2.153333 -1.433879,-3.647136 -2.560547,-4.480469 -0.833333,-0.62 -1.761823,-0.85789 -2.785156,-0.71289 -1.023333,0.145 -2.142135,0.672031 -3.355468,1.582031 -0.733334,0.553333 -1.346511,1.216901 -1.839844,1.990235 C 49.156511,20.726354 48.055729,24.416667 47.789062,28.75 47.629057,31.440998 47.54611,34.196651 47.54,37.017037 Z"
     fill="#fc7300"
     fill-opacity="1"
     class="UnoptimicedTransforms"
     style="display:inline"
     transform="translate(24.873595,-0.0891604)" />
  <path
     id="path396"
     d="m 89.513672,70.673828 c -0.6675,0.01125 -1.394974,0.119505 -2.181641,0.326172 -2.1,0.553333 -3.279062,2.136667 -3.539062,4.75 -0.04667,3.106667 1.382395,5.09427 4.289062,5.960938 3.08,0.246667 5.109844,-0.704896 6.089844,-2.851563 0.853333,-1.86 0.766901,-3.74177 -0.259766,-5.648437 -0.93,-1.725 -2.395937,-2.57086 -4.398437,-2.53711 z"
     fill="#000000"
     fill-opacity="1"
     class="UnoptimicedTransforms"
     style="display:inline"
     transform="translate(-47.541902)" />
  <path
     id="path402"
     d="m 97.962891,77.759766 c -2.92,0.553333 -4.775027,1.999843 -5.56836,4.339843 -0.713333,2.12 -0.501328,4.170391 0.638672,6.150391 0.926667,1.6 2.324739,2.653489 4.191406,3.160156 1.68,0.453333 3.299371,0.283568 4.859371,-0.509765 2.72,-1.386667 4.00294,-3.833177 3.84961,-7.339844 -0.0133,-0.291646 -0.23624,-1.665046 -0.52734,-1.78125 -0.71218,0.0069 -1.0232,-0.02529 -1.96875,-0.394531 -0.7915,-0.453839 -0.94518,-0.51634 -1.70117,-1.160157 -0.65426,-0.75671 -2.600106,-2.684843 -3.773439,-2.464843 z"
     fill="#fdb07e"
     fill-opacity="1"
     class="UnoptimicedTransforms"
     style="display:inline"
     transform="translate(-64)" />
</svg>
