<?xml version="1.0" encoding="UTF-8" standalone="no"?><svg id="bencher_wordmark" version="1.1" viewBox="0 0 600 113" xmlns="http://www.w3.org/2000/svg" xmlns:svg="http://www.w3.org/2000/svg"><path id="outline" fill="#000000" fill-opacity="1" d="m 87.04,54.87 c 5.413333,4.24 9.113333,9.476667 11.1,15.71 1.853333,5.786667 2.15333,11.436667 0.9,16.95 -1.366667,6.013333 -4.61,11.023333 -9.73,15.03 -4.386667,3.44 -9.736667,5.77333 -16.05,7 -9.833333,1.91333 -19.61,1.67 -29.33,-0.73 -4.053333,-1 -7.823333,-2.63667 -11.31,-4.91 C 27.826667,100.78667 24.42,96.77 22.4,91.87 20.553333,87.363333 19.95,82.366667 20.59,76.88 21.583333,68.446667 25.623333,61.153333 32.71,55 c 0.602958,-0.526584 0.745946,-1.405539 0.34,-2.09 -4.04,-6.76 -7.213333,-14.043333 -9.52,-21.85 -1.38,-4.673333 -1.906667,-8.61 -1.58,-11.81 0.433333,-4.353333 1.97,-8.166667 4.61,-11.44 3.16,-3.9133333 7.056667,-5.7966667 11.69,-5.65 3.92,0.12 7.6,1.59 11.04,4.41 4.6,3.78 7.336667,7.42904 8.21,13.935707 0.49,3.643333 0.657432,5.952996 0.865387,10.739823 0.150482,3.522425 0.111596,7.280575 0.07402,10.602405 -0.04773,1.205311 -0.01116,2.062877 0.193426,2.394139 0.734393,1.130752 2.423841,1.054593 2.837174,-0.09207 0.153333,-0.433333 0.206667,-1.17 0.16,-2.21 -0.18,-3.6 -0.183333,-7.2 -0.01,-10.8 0.24,-5.093333 0.56,-8.676667 0.96,-10.75 1.48,-7.68 5.723333,-13.29 12.73,-16.83 3.4,-1.7133333 6.866667,-2.0133333 10.4,-0.9 2.98,0.9466667 5.603333,2.8733333 7.87,5.78 3.333333,4.28 4.866667,9.083333 4.6,14.41 -0.186667,3.64 -1.616667,8.863333 -4.29,15.67 -1.973333,5.046667 -4.36,9.94 -7.16,14.68 -0.326572,0.559373 -0.194376,1.271522 0.31,1.67 z m -20.85,-5 C 62.283333,49.383333 58.143333,49.37 53.77,49.83 53.447244,49.8578 53.180693,49.581558 53.22,49.26 54.473333,39.493333 54.316667,29.99 52.75,20.75 52.323333,18.23 51.266667,15.79 49.58,13.43 48.033333,11.256667 46.086667,9.56 43.74,8.34 37.9,5.2933333 33.136667,6.4366667 29.45,11.77 c -1.406667,2.033333 -2.343333,4.356667 -2.81,6.97 -0.5,2.84 -0.443333,5.406667 0.17,7.7 2.666667,9.866667 6.923333,19.276667 12.77,28.23 0.173388,0.265249 0.09631,0.618913 -0.17,0.78 -5.8,3.666667 -9.92,8.423333 -12.36,14.27 -2.48,5.953333 -2.926667,11.89 -1.34,17.81 2.006667,7.5 7.123333,12.72 15.35,15.66 11.58,4.13333 23.636667,4.3 36.17,0.5 7.873333,-2.38667 13.18,-6.823333 15.92,-13.31 2.513333,-5.953333 2.663333,-12.243333 0.45,-18.87 -2.193333,-6.54 -6.52,-11.856667 -12.98,-15.95 -0.308104,-0.194766 -0.398356,-0.600899 -0.2,-0.9 5.073333,-7.793333 8.956667,-15.926667 11.65,-24.4 0.96,-3.04 1.486667,-5.63 1.58,-7.77 0.126667,-3.086667 -0.36,-5.73 -1.46,-7.93 -3.346667,-6.6533333 -7.873333,-9.07 -13.58,-7.25 -3.566667,1.1333333 -6.43,3.433333 -8.59,6.9 -2.013333,3.226667 -3.186667,6.906667 -3.52,11.04 -0.68,8.426667 -0.633333,16.486667 0.14,24.18 0.02818,0.257891 -0.192807,0.473963 -0.45,0.44 z" /><path id="face" d="m 37.625,6.6796875 c -0.314528,0.00599 -0.625523,0.029637 -0.931641,0.068359 -0.306116,0.038724 -0.608544,0.092604 -0.90625,0.1640625 -0.297704,0.071458 -0.591565,0.1594803 -0.880859,0.2636718 -0.289294,0.1041917 -0.574586,0.2244025 -0.855469,0.3613282 -0.280882,0.1369257 -0.555653,0.2912777 -0.828125,0.4609375 -0.27247,0.1696597 -0.542581,0.3542468 -0.80664,0.5566406 -0.264061,0.2023938 -0.523649,0.4211222 -0.779297,0.65625 -0.255649,0.2351278 -0.506669,0.4879974 -0.753907,0.7558594 -0.247236,0.2678625 -0.489689,0.5509675 -0.728515,0.8515625 -0.238826,0.300597 -0.474664,0.617843 -0.705078,0.951172 -0.351663,0.508329 -0.673884,1.035501 -0.966797,1.580078 -0.292914,0.544579 -0.554898,1.106673 -0.789063,1.6875 -0.234163,0.580828 -0.439819,1.179798 -0.615234,1.796875 -0.175415,0.617078 -0.320835,1.252924 -0.4375,1.90625 -0.124998,0.709994 -0.216069,1.402299 -0.271484,2.078125 -0.05542,0.675827 -0.07667,1.334902 -0.0625,1.976563 0.01417,0.64166 0.06469,1.265553 0.148437,1.873047 0.08375,0.607494 0.202137,1.198157 0.355469,1.771484 0.33333,1.233321 0.691202,2.460637 1.074219,3.679688 0.383017,1.21905 0.789952,2.429986 1.222656,3.634765 0.432704,1.20478 0.890655,2.403241 1.373047,3.59375 0.48239,1.190509 0.989406,2.374543 1.521484,3.550781 0.532078,1.17624 1.09011,2.343893 1.671875,3.50586 0.581765,1.161967 1.186908,2.317146 1.818359,3.464844 0.631453,1.147696 1.289564,2.288448 1.970704,3.421875 0.681138,1.133425 1.386361,2.25975 2.117187,3.378906 0.04143,0.06285 0.06999,0.133262 0.08398,0.207031 0.0136,0.07397 0.01226,0.149706 -0.0039,0.222656 -0.01615,0.07267 -0.04671,0.141089 -0.08984,0.201172 -0.04283,0.05992 -0.09729,0.110398 -0.160156,0.148438 -0.724992,0.458328 -1.423209,0.935344 -2.095703,1.427734 -0.672494,0.492391 -1.319459,1.000891 -1.939453,1.527344 -0.619994,0.526453 -1.213756,1.070344 -1.78125,1.630859 -0.567494,0.560515 -1.108051,1.137845 -1.623047,1.732422 -0.514994,0.594577 -1.004301,1.205346 -1.466797,1.833984 -0.462494,0.62864 -0.898598,1.274799 -1.308594,1.9375 -0.409994,0.662703 -0.794847,1.342299 -1.152343,2.039063 -0.357496,0.696764 -0.68719,1.411752 -0.992188,2.142578 -0.309996,0.744159 -0.589481,1.486831 -0.835937,2.230469 -0.246456,0.743638 -0.461616,1.48735 -0.644532,2.230469 -0.182914,0.743117 -0.33375,1.485919 -0.453125,2.228515 -0.119373,0.742598 -0.205886,1.484486 -0.261718,2.226563 -0.05583,0.742075 -0.07997,1.485007 -0.07227,2.226562 0.0077,0.741556 0.04594,1.481623 0.117188,2.222656 0.07125,0.741035 0.175757,1.482143 0.310546,2.222657 0.134791,0.740513 0.301669,1.480711 0.5,2.220703 0.125417,0.468746 0.262398,0.929927 0.41211,1.380859 0.149712,0.450933 0.310366,0.893051 0.484375,1.326172 0.174008,0.433121 0.360288,0.856177 0.558594,1.271484 0.198305,0.415309 0.41021,0.821254 0.632812,1.21875 0.222602,0.397498 0.456226,0.786333 0.703125,1.166016 0.246899,0.379684 0.506148,0.75141 0.777344,1.113281 0.271195,0.361873 0.554118,0.714535 0.849609,1.058594 0.295493,0.344059 0.60404,0.679613 0.923828,1.005859 0.319789,0.326248 0.652009,0.642738 0.996094,0.951172 0.344085,0.308435 0.699978,0.607815 1.068359,0.898438 0.368383,0.290621 0.747947,0.572893 1.140625,0.845703 0.39268,0.272815 0.797869,0.536015 1.214844,0.791015 0.416975,0.255 0.845838,0.5011 1.28711,0.73828 0.44127,0.23719 0.895759,0.46617 1.361328,0.68555 0.465567,0.21937 0.943729,0.4293 1.433593,0.63086 0.489866,0.20156 0.991698,0.39437 1.50586,0.57812 0.723742,0.25834 1.448315,0.50118 2.175781,0.72852 0.727466,0.22734 1.458263,0.44036 2.189453,0.63672 0.731192,0.19635 1.464305,0.37565 2.199219,0.54101 0.734914,0.16537 1.470346,0.3168 2.208984,0.45118 0.73864,0.13436 1.480294,0.25208 2.222657,0.35546 0.742362,0.10339 1.486335,0.19128 2.232421,0.26368 0.746088,0.0724 1.494331,0.13046 2.244141,0.17187 0.74981,0.0414 1.500372,0.0658 2.253906,0.0762 0.753535,0.0104 1.510321,0.007 2.267578,-0.0137 0.757259,-0.0206 1.516362,-0.0578 2.277344,-0.10937 0.760982,-0.0516 1.522403,-0.11862 2.28711,-0.20118 0.764705,-0.0825 1.532351,-0.17943 2.300781,-0.29296 0.76843,-0.11355 1.538393,-0.24415 2.310547,-0.38868 0.772153,-0.14453 1.546388,-0.30299 2.322265,-0.47851 0.775878,-0.17552 1.55243,-0.36771 2.332032,-0.57422 0.779601,-0.20651 1.562377,-0.42852 2.345703,-0.66602 0.492078,-0.14916 0.973286,-0.30552 1.445312,-0.4707 0.472027,-0.16518 0.934744,-0.33833 1.386719,-0.51953 0.451975,-0.1812 0.894249,-0.37115 1.326172,-0.56836 0.431923,-0.19721 0.853754,-0.40202 1.265625,-0.61523 0.411871,-0.21323 0.813259,-0.43482 1.205078,-0.66407 0.391819,-0.22924 0.772764,-0.46569 1.144531,-0.71093 0.371767,-0.245268 0.734223,-0.498497 1.085938,-0.759771 0.351715,-0.261272 0.693727,-0.531305 1.02539,-0.808593 0.331664,-0.27729 0.653233,-0.562165 0.964844,-0.855469 0.311612,-0.293305 0.612737,-0.594978 0.904297,-0.904297 0.29156,-0.309319 0.574195,-0.625837 0.845703,-0.951172 0.271508,-0.325335 0.531748,-0.658649 0.783203,-1 0.251456,-0.34135 0.493206,-0.691462 0.72461,-1.048828 0.231403,-0.357366 0.45271,-0.722322 0.664062,-1.095703 0.211352,-0.373382 0.412216,-0.755134 0.603516,-1.144531 0.1913,-0.389397 0.373672,-0.785994 0.544922,-1.191407 0.314163,-0.744159 0.591721,-1.495319 0.832031,-2.25 0.24031,-0.754679 0.442918,-1.514095 0.609375,-2.279297 0.166456,-0.7652 0.296068,-1.534825 0.388672,-2.310546 0.0926,-0.775722 0.14922,-1.557508 0.167968,-2.34375 0.01875,-0.786242 4.2e-4,-1.578238 -0.05469,-2.375 -0.0551,-0.796763 -0.148386,-1.598967 -0.277344,-2.40625 -0.128956,-0.807284 -0.295236,-1.619696 -0.498047,-2.4375 -0.20281,-0.817805 -0.442085,-1.640426 -0.71875,-2.46875 -0.274163,-0.817492 -0.581044,-1.615269 -0.921875,-2.394532 -0.340829,-0.779263 -0.715551,-1.540215 -1.123047,-2.28125 -0.407494,-0.741034 -0.848103,-1.46321 -1.322265,-2.166015 -0.474162,-0.702806 -0.980656,-1.386204 -1.521485,-2.050782 -0.540827,-0.664576 -1.115162,-1.309199 -1.722656,-1.935546 -0.607494,-0.626348 -1.249668,-1.234147 -1.923828,-1.822266 -0.67416,-0.588119 -1.380267,-1.157141 -2.121094,-1.707031 -0.740825,-0.549891 -1.516726,-1.080136 -2.324218,-1.591797 -0.07387,-0.04694 -0.136388,-0.107649 -0.185547,-0.177735 -0.04916,-0.07008 -0.08496,-0.149546 -0.103516,-0.234375 -0.01871,-0.08453 -0.01919,-0.170876 -0.0039,-0.253906 0.01528,-0.08303 0.04633,-0.162748 0.09375,-0.234375 0.63416,-0.974157 1.250683,-1.954671 1.847656,-2.939453 0.596973,-0.984782 1.174589,-1.973343 1.734375,-2.96875 0.559786,-0.995407 1.100448,-1.995921 1.623047,-3.001953 0.522599,-1.006032 1.026307,-2.0185 1.511719,-3.035156 0.485411,-1.016657 0.952166,-2.039125 1.40039,-3.066407 0.448225,-1.02728 0.878025,-2.059749 1.289063,-3.097656 0.411037,-1.037906 0.803884,-2.080375 1.177734,-3.128906 0.373851,-1.048531 0.729744,-2.102954 1.066406,-3.162109 0.239998,-0.759994 0.452841,-1.491569 0.638672,-2.195313 0.185832,-0.703742 0.344898,-1.37985 0.476563,-2.027344 0.131665,-0.647492 0.235,-1.266176 0.3125,-1.857422 0.0775,-0.591244 0.12901,-1.154457 0.152344,-1.689453 0.03167,-0.771658 0.02547,-1.516178 -0.01953,-2.232422 -0.0225,-0.358121 -0.05599,-0.708467 -0.09766,-1.052734 -0.04167,-0.344267 -0.09151,-0.681305 -0.152344,-1.011719 -0.06083,-0.330413 -0.132892,-0.654143 -0.21289,-0.970703 -0.08,-0.316559 -0.168413,-0.626982 -0.267578,-0.929687 -0.09917,-0.302706 -0.207841,-0.597867 -0.326172,-0.886719 -0.118333,-0.288852 -0.247268,-0.570705 -0.384766,-0.845703 -0.209164,-0.415829 -0.422242,-0.816488 -0.640625,-1.199219 -0.218383,-0.38273 -0.44232,-0.748024 -0.669922,-1.097656 -0.227602,-0.349632 -0.458492,-0.683467 -0.695312,-1 -0.236814,-0.316533 -0.47857,-0.615003 -0.72461,-0.898438 C 89.212946,10.0818 88.962289,9.8147892 88.707031,9.5644531 88.451774,9.3141171 88.192211,9.0805186 87.927734,8.8632813 87.663259,8.6460438 87.392835,8.4439044 87.119141,8.2597656 86.845445,8.0756268 86.568071,7.9088526 86.285156,7.7578125 86.002243,7.6067724 85.714008,7.4714571 85.421875,7.3535156 85.129742,7.2355741 84.832601,7.1356242 84.53125,7.0507812 84.229899,6.9659384 83.925805,6.8974475 83.615234,6.8457031 83.304665,6.7939589 82.987757,6.75888 82.667969,6.7402344 82.34818,6.7215885 82.02432,6.7179659 81.695312,6.7324219 c -0.329006,0.014453 -0.661773,0.046198 -1,0.09375 -0.338225,0.047552 -0.681852,0.110756 -1.029296,0.1914062 -0.347446,0.080651 -0.699978,0.1792198 -1.056641,0.2929688 -0.445829,0.1416652 -0.880837,0.3003924 -1.304688,0.4785156 -0.423849,0.1781232 -0.83641,0.3752625 -1.238281,0.5898438 -0.401871,0.2145811 -0.791983,0.4481796 -1.171875,0.6992187 -0.379892,0.2510391 -0.749508,0.5191436 -1.107422,0.8066406 -0.357913,0.2874974 -0.705081,0.5940144 -1.041015,0.9179684 -0.335935,0.323956 -0.660654,0.664978 -0.97461,1.025391 -0.313954,0.360413 -0.616226,0.739848 -0.908203,1.136719 -0.291975,0.396871 -0.573752,0.812764 -0.84375,1.246094 -0.251663,0.403328 -0.489429,0.812972 -0.714844,1.230468 -0.225413,0.417496 -0.437554,0.841775 -0.636718,1.273438 -0.199165,0.431662 -0.385679,0.870577 -0.558594,1.316406 -0.172915,0.445829 -0.33185,0.899379 -0.478516,1.359375 -0.146665,0.459996 -0.281928,0.926228 -0.402343,1.400391 -0.120416,0.474161 -0.226147,0.95503 -0.320313,1.443359 -0.09417,0.488329 -0.176224,0.983834 -0.244141,1.486328 C 66.596147,24.223196 66.541666,24.733339 66.5,25.25 c -0.085,1.053323 -0.158412,2.100713 -0.220703,3.142578 -0.06229,1.041865 -0.112761,2.078969 -0.152344,3.109375 -0.03958,1.030407 -0.06906,2.055271 -0.08594,3.074219 -0.01687,1.018948 -0.02146,2.031572 -0.01563,3.039062 0.0058,1.00749 0.02224,2.009828 0.05078,3.00586 0.02854,0.996031 0.06789,1.986129 0.11914,2.970703 0.05125,0.984573 0.115496,1.962432 0.189454,2.935547 0.07396,0.973115 0.159193,1.940687 0.255859,2.902343 0.0086,0.08108 -0.0077,0.162855 -0.04687,0.234375 -0.03852,0.07127 -0.09778,0.129162 -0.169922,0.166016 -0.07237,0.03646 -0.154097,0.05008 -0.234375,0.03906 -0.976657,-0.121666 -1.966833,-0.212891 -2.972656,-0.275391 -1.005823,-0.0625 -2.02751,-0.09628 -3.0625,-0.09961 -1.03499,-0.0033 -2.084281,0.02425 -3.148438,0.08008 -1.064155,0.05583 -2.143005,0.140861 -3.236328,0.255859 -0.07648,0.0065 -0.152555,-0.0049 -0.222656,-0.03125 -0.0701,-0.02637 -0.134237,-0.06777 -0.1875,-0.123047 -0.05326,-0.05535 -0.09349,-0.120301 -0.117188,-0.191406 -0.0237,-0.07111 -0.03088,-0.14837 -0.02148,-0.224609 0.156665,-1.220822 0.28974,-2.437799 0.402344,-3.650391 0.112602,-1.212592 0.204897,-2.420637 0.273437,-3.625 0.06854,-1.204363 0.114193,-2.405428 0.138672,-3.601563 0.02448,-1.196133 0.02741,-2.388267 0.0078,-3.576171 -0.01958,-1.187905 -0.06135,-2.371106 -0.125,-3.550782 C 53.854306,30.076182 53.767851,28.89996 53.660143,27.728514 53.552449,26.557068 53.423254,25.389781 53.271484,24.226562 53.119732,23.063347 52.945831,21.904988 52.75,20.75 52.643335,20.120006 52.497915,19.494994 52.3125,18.875 52.127085,18.255006 51.900882,17.639291 51.636719,17.029297 51.372554,16.419303 51.069476,15.814838 50.726562,15.214844 50.38365,14.61485 50.001741,14.019682 49.580078,13.429688 49.193415,12.886359 48.782366,12.372416 48.345703,11.888672 47.909041,11.404926 47.4476,10.951506 46.960937,10.527344 46.474276,10.103181 45.962443,9.7083297 45.425781,9.34375 44.88912,8.9791703 44.326895,8.6448406 43.740234,8.3398438 43.375238,8.1494289 43.014788,7.9760401 42.658203,7.8183594 42.301618,7.6606787 41.947784,7.5194779 41.599609,7.3945312 41.251436,7.2695847 40.908122,7.160572 40.568359,7.0683594 40.228597,6.9761467 39.893851,6.8993224 39.5625,6.8398437 39.231149,6.7803652 38.903018,6.7376821 38.580078,6.7109375 38.257139,6.6841929 37.939528,6.6736979 37.625,6.6796875 Z" style="fill:#ffffff" /><path id="mouth" fill="#bfb5bf" fill-opacity="1" d="m 65,95.56 q 2.08,0 3.57,-1.6 0.21,-0.24 0.41,-0.35 1.2,-0.71 0.21,0.83 -2.88,4.47 -8.66,1.9 a 1.22,1.23 46.3 0 0 -0.95,-0.02 q -6.21,2.54 -8.93,-2.26 -0.42,-0.74 0.05,-0.71 a 1.04,0.54 59.1 0 1 0.6,0.37 q 3.6,4.14 7.61,-0.87 a 1.32,1.32 0 0 1 2.22,0.26 q 0.46,0.98 1.65,1.76 1.06,0.69 2.22,0.69 z" /><ellipse id="nose" fill="#fc7300" fill-opacity="1" cx="60.445126" cy="88.674728" rx="3.53" ry="1.97" transform="rotate(0.3)" /><path id="ears" fill="#fc7300" fill-opacity="1" d="m 42.15,15.69 c 0.733333,0.553333 1.346667,1.216667 1.84,1.99 1.933333,3.046667 3.033333,6.736667 3.3,11.07 0.366667,6.166667 0.33,12.673333 -0.11,19.52 -0.186667,2.98 -1.19,3.286667 -3.01,0.92 -4.42,-5.753333 -7.956667,-12.92 -10.61,-21.5 -0.84,-2.726667 -0.876667,-5.523333 -0.11,-8.39 0.58,-2.153333 1.433333,-3.646667 2.56,-4.48 1.666667,-1.24 3.713333,-0.95 6.14,0.87 z m 35.7,0 c -0.733333,0.553333 -1.346667,1.216667 -1.84,1.99 -1.933333,3.046667 -3.033333,6.736667 -3.3,11.07 -0.366667,6.166667 -0.33,12.673333 0.11,19.52 0.186667,2.98 1.19,3.286667 3.01,0.92 4.42,-5.753333 7.956667,-12.92 10.61,-21.5 0.84,-2.726667 0.876667,-5.523333 0.11,-8.39 -0.58,-2.153333 -1.433333,-3.646667 -2.56,-4.48 -1.666667,-1.24 -3.713333,-0.95 -6.14,0.87 z" /><path id="cheeks" style="fill:#fdb07e;fill-opacity:1" d="m 42.084458,84.719032 c 0,3.872338 -3.278533,7.011488 -7.322808,7.011488 -4.044275,0 -7.322808,-3.13915 -7.322808,-7.011488 0,-3.872337 3.278533,-7.011487 7.322808,-7.011487 4.044275,0 7.322808,3.13915 7.322808,7.011487 z m 35.831084,0 c 0,3.872338 3.278533,7.011488 7.322808,7.011488 4.044275,0 7.322808,-3.13915 7.322808,-7.011488 0,-3.872337 -3.278533,-7.011487 -7.322808,-7.011487 -4.044275,0 -7.322808,3.13915 -7.322808,7.011487 z" /><path id="eyes" style="fill:#000000;fill-opacity:1" d="m 47.451446,76.183212 c 0,3.131826 -2.549593,5.670672 -5.694675,5.670672 -3.145082,0 -5.694674,-2.538846 -5.694674,-5.670672 0,-3.131825 2.549592,-5.670671 5.694674,-5.670671 3.145082,0 5.694675,2.538846 5.694675,5.670671 z m 25.097108,0 c 0,3.131826 2.549593,5.670672 5.694675,5.670672 3.145082,0 5.694674,-2.538846 5.694674,-5.670672 0,-3.131825 -2.549592,-5.670671 -5.694674,-5.670671 -3.145082,0 -5.694675,2.538846 -5.694675,5.670671 z" /><path id="bencher" style="font-size:112.596px;fill:#000000;stroke-width:9.38295" d="M 400.42969 16.472656 L 400.42969 102.01758 L 410.76562 102.01758 L 410.76562 56.166016 C 413.58785 54.003529 416.53839 52.226772 419.61719 50.833984 C 422.69598 49.441197 425.64652 48.744141 428.46875 48.744141 C 431.21767 48.744141 433.45312 49.128739 435.17578 49.898438 C 436.89844 50.631484 438.21846 51.767244 439.13477 53.306641 C 440.01442 54.699428 440.61935 56.642409 440.94922 59.134766 C 441.27909 61.59047 441.44336 64.230507 441.44336 67.052734 L 441.44336 102.01758 L 451.7793 102.01758 L 451.7793 62.158203 C 451.7793 54.64448 450.03861 48.891586 446.55664 44.896484 C 443.07467 40.901383 438.01688 38.902344 431.38281 38.902344 C 427.75423 38.902344 424.2168 39.653505 420.77148 41.15625 C 417.32617 42.658995 413.99103 44.74821 410.76562 47.423828 L 410.76562 16.472656 L 400.42969 16.472656 z M 127.07617 20.15625 L 127.07617 102.01758 L 156.10547 102.01758 C 161.78658 102.01758 166.45977 101.50478 170.125 100.47852 C 173.82688 99.452251 177.21613 97.729599 180.29492 95.310547 C 182.89724 93.29467 184.96842 90.728727 186.50781 87.613281 C 188.04721 84.497835 188.81641 80.906297 188.81641 76.837891 C 188.81641 71.156783 187.22391 66.465555 184.03516 62.763672 C 180.84641 59.025137 176.48372 56.587393 170.94922 55.451172 L 170.94922 55.011719 C 174.24793 53.362365 176.88796 51.181021 178.86719 48.46875 C 180.84641 45.719827 181.83594 42.402723 181.83594 38.517578 C 181.83594 35.072261 181.15692 32.12172 179.80078 29.666016 C 178.44465 27.173659 176.2633 25.140502 173.25781 23.564453 C 170.54554 22.171665 167.70517 21.254281 164.73633 20.814453 C 161.76749 20.374625 157.29659 20.15625 151.32227 20.15625 L 127.07617 20.15625 z M 137.96289 29.447266 L 150.9375 29.447266 C 154.56608 29.447266 157.60875 29.575465 160.06445 29.832031 C 162.52016 30.051945 164.60937 30.656872 166.33203 31.646484 C 167.79812 32.489487 168.85979 33.589177 169.51953 34.945312 C 170.17927 36.301448 170.50977 37.968041 170.50977 39.947266 C 170.50977 42.329666 170.1432 44.400845 169.41016 46.160156 C 168.71376 47.882815 167.50391 49.293009 165.78125 50.392578 C 164.05859 51.492147 162.18971 52.225274 160.17383 52.591797 C 158.15795 52.921668 155.44577 53.087891 152.03711 53.087891 L 137.96289 53.087891 L 137.96289 29.447266 z M 228.95117 38.902344 C 220.00801 38.902344 212.78886 41.852885 207.29102 47.753906 C 201.82982 53.654928 199.09766 61.62719 199.09766 71.669922 C 199.09766 81.822611 201.95802 89.666673 207.67578 95.201172 C 213.39354 100.69902 221.34581 103.44727 231.53516 103.44727 C 235.53026 103.44727 239.34212 102.9525 242.9707 101.96289 C 246.59928 100.97328 250.15475 99.745389 253.63672 98.279297 L 253.63672 87.009766 L 253.08789 87.009766 C 251.29193 88.622467 248.26729 90.271025 244.01562 91.957031 C 239.80061 93.606385 235.60414 94.431641 231.42578 94.431641 C 228.27368 94.431641 225.37725 93.990984 222.73828 93.111328 C 220.13597 92.231673 217.88248 90.913608 215.97656 89.154297 C 213.99734 87.358334 212.43896 85.066825 211.30273 82.28125 C 210.16651 79.459022 209.59961 76.159953 209.59961 72.384766 L 254.8457 72.384766 L 254.8457 66.777344 C 254.8457 57.870833 252.59222 50.998261 248.08398 46.160156 C 243.6124 41.322052 237.23459 38.902344 228.95117 38.902344 z M 301.46875 38.902344 C 297.84017 38.902344 294.30274 39.653505 290.85742 41.15625 C 287.4121 42.658995 284.07697 44.74821 280.85156 47.423828 L 280.85156 40.607422 L 270.51562 40.607422 L 270.51562 102.01758 L 280.85156 102.01758 L 280.85156 56.166016 C 283.67379 54.003529 286.62433 52.226772 289.70312 50.833984 C 292.78192 49.441197 295.73246 48.744141 298.55469 48.744141 C 301.30361 48.744141 303.53906 49.128739 305.26172 49.898438 C 306.98438 50.631484 308.3044 51.767244 309.2207 53.306641 C 310.10036 54.699428 310.70529 56.642409 311.03516 59.134766 C 311.36503 61.59047 311.5293 64.230507 311.5293 67.052734 L 311.5293 102.01758 L 321.86523 102.01758 L 321.86523 62.158203 C 321.86523 54.64448 320.12455 48.891586 316.64258 44.896484 C 313.16061 40.901383 308.10282 38.902344 301.46875 38.902344 z M 497.19141 38.902344 C 488.24824 38.902344 481.0291 41.852885 475.53125 47.753906 C 470.07006 53.654928 467.33789 61.62719 467.33789 71.669922 C 467.33789 81.822611 470.19826 89.666673 475.91602 95.201172 C 481.63378 100.69902 489.58605 103.44727 499.77539 103.44727 C 503.77049 103.44727 507.58236 102.9525 511.21094 101.96289 C 514.83952 100.97328 518.39498 99.745389 521.87695 98.279297 L 521.87695 87.009766 L 521.32812 87.009766 C 519.53216 88.622467 516.50753 90.271025 512.25586 91.957031 C 508.04084 93.606385 503.84438 94.431641 499.66602 94.431641 C 496.51392 94.431641 493.61748 93.990984 490.97852 93.111328 C 488.3762 92.231673 486.12272 90.913608 484.2168 89.154297 C 482.23757 87.358334 480.67919 85.066825 479.54297 82.28125 C 478.40675 79.459022 477.83984 76.159953 477.83984 72.384766 L 523.08594 72.384766 L 523.08594 66.777344 C 523.08594 57.870833 520.83245 50.998261 516.32422 46.160156 C 511.85264 41.322052 505.47483 38.902344 497.19141 38.902344 z M 367.49805 39.177734 C 358.44493 39.177734 351.14973 42.036146 345.61523 47.753906 C 340.11739 53.471666 337.36914 61.351799 337.36914 71.394531 C 337.36914 76.78242 338.10227 81.493637 339.56836 85.525391 C 341.03445 89.557144 343.10563 92.892284 345.78125 95.53125 C 348.42022 98.170216 351.59109 100.14927 355.29297 101.46875 C 358.99485 102.75158 363.06312 103.39258 367.49805 103.39258 C 370.98002 103.39258 374.2591 102.93389 377.33789 102.01758 C 380.45334 101.10127 383.73437 99.819276 387.17969 98.169922 L 387.17969 86.789062 L 386.63086 86.789062 C 385.86116 87.412152 384.81558 88.163313 383.49609 89.042969 C 382.17661 89.885972 380.76642 90.693192 379.26367 91.462891 C 377.54101 92.342546 375.59803 93.057637 373.43555 93.607422 C 371.27306 94.157206 369.14778 94.431641 367.05859 94.431641 C 361.04762 94.431641 356.37442 92.45259 353.03906 88.494141 C 349.74035 84.499039 348.08984 78.798297 348.08984 71.394531 C 348.08984 63.770851 349.77643 57.997969 353.14844 54.076172 C 356.5571 50.117723 361.19422 48.138672 367.05859 48.138672 C 370.24734 48.138672 373.50839 48.799658 376.84375 50.119141 C 380.21576 51.438624 383.47876 53.325545 386.63086 55.78125 L 387.17969 55.78125 L 387.17969 44.291016 C 384.35746 42.861576 381.24265 41.651722 377.83398 40.662109 C 374.46197 39.672497 371.01667 39.177734 367.49805 39.177734 z M 538.75586 40.607422 L 538.75586 102.01758 L 549.0918 102.01758 L 549.0918 58.419922 C 551.84072 56.184131 554.69913 54.36935 557.66797 52.976562 C 560.63681 51.547123 563.71555 50.833984 566.9043 50.833984 C 568.88352 50.833984 570.58814 50.92416 572.01758 51.107422 C 573.48367 51.254031 574.98599 51.51043 576.52539 51.876953 L 577.07617 51.876953 L 577.07617 41.267578 C 575.46347 41.011012 574.25362 40.844789 573.44727 40.771484 C 572.64091 40.661527 571.33893 40.607422 569.54297 40.607422 C 566.28091 40.607422 563.07397 41.304478 559.92188 42.697266 C 556.80643 44.053401 553.19686 46.38098 549.0918 49.679688 L 549.0918 40.607422 L 538.75586 40.607422 z M 228.40234 47.423828 C 233.90019 47.423828 237.98649 48.908116 240.66211 51.876953 C 243.37438 54.84579 244.7485 59.044209 244.78516 64.46875 L 209.59961 64.46875 C 210.03944 59.630645 211.89029 55.580415 215.15234 52.318359 C 218.45105 49.056304 222.86785 47.423828 228.40234 47.423828 z M 496.64258 47.423828 C 502.14042 47.423828 506.22673 48.908116 508.90234 51.876953 C 511.61461 54.84579 512.98874 59.044209 513.02539 64.46875 L 477.83984 64.46875 C 478.27967 59.630645 480.13052 55.580415 483.39258 52.318359 C 486.69129 49.056304 491.10808 47.423828 496.64258 47.423828 z M 137.96289 62.269531 L 155.06055 62.269531 C 158.65247 62.269531 161.69514 62.415766 164.1875 62.708984 C 166.71651 62.965551 168.85983 63.552442 170.61914 64.46875 C 173.22145 65.824885 175.0182 67.473443 176.00781 69.416016 C 176.99742 71.358588 177.49219 73.978636 177.49219 77.277344 C 177.49219 80.172876 177.01546 82.538478 176.0625 84.371094 C 175.10954 86.203709 173.60722 87.834232 171.55469 89.263672 C 169.61212 90.583155 167.11831 91.498586 164.07617 92.011719 C 161.03403 92.488199 157.13199 92.726562 152.36719 92.726562 L 137.96289 92.726562 L 137.96289 62.269531 z" /></svg>